# xmcd CD database file
#
# Track frame offsets:
#	150
#	20982
#	52953
#	76120
#	111676
#	144958
#	174930
#	197935
#
# Disc length: 3034 seconds
#
# Revision: 0
# Processed by: cddbd v1.5.1PL0 Copyright (c) Steve Scherf et al.
# Submitted via: CDex 1.51
#
DISCID=6a0bd808
DTITLE=Mike Allen Trio Feat. George McFetridge - Fearless
DYEAR=2004
DGENRE=Jazz
TTITLE0=Fearless
TTITLE1=The Man
TTITLE2=Let Your Heart Sing
TTITLE3=John Robbins
TTITLE4=Crystallized
TTITLE5=Until It's Over
TTITLE6=From A Different Angle
TTITLE7=Mingus Jump
EXTD=YEAR: 2004
EXTT0=
EXTT1=
EXTT2=
EXTT3=
EXTT4=
EXTT5=
EXTT6=
EXTT7=
PLAYORDER=
